<svg width="135" height="139" viewBox="0 0 135 139" fill="none" xmlns="http://www.w3.org/2000/svg">
<g clip-path="url(#clip0_144_1404)">
<path d="M129.527 20.1141C118.854 2.1417 96.2892 -3.58664 78.8315 6.78058C64.7346 15.152 58.577 31.9455 62.2849 47.4937C50.405 36.8007 32.9123 34.5067 18.8154 42.8781C1.35422 53.2474 -4.64082 75.3908 6.03612 93.37C11.4235 102.442 18.8444 106.705 28.7351 110.109L113.09 132.979L133.318 48.0024C135.068 37.6858 134.911 29.1792 129.527 20.1141Z" fill="black"/>
<path d="M41.5362 75.7041L39.5126 75.1505C39.5522 74.5357 39.4826 73.9671 39.304 73.4446C39.1308 72.9236 38.873 72.4555 38.5306 72.0403C38.195 71.621 37.7925 71.2653 37.3228 70.9731C36.8531 70.6809 36.3409 70.4589 35.7861 70.3071C34.7743 70.0303 33.7878 70.0352 32.8265 70.3218C31.8707 70.6099 31.0145 71.1855 30.258 72.0485C29.507 72.913 28.9336 74.0687 28.5377 75.5156C28.1418 76.9626 28.0471 78.2493 28.2534 79.3757C28.4652 80.5036 28.9091 81.4348 29.5852 82.1693C30.2667 82.9054 31.1133 83.4118 32.1251 83.6886C32.6799 83.8404 33.2338 83.9101 33.7868 83.8977C34.3398 83.8853 34.8667 83.7868 35.3674 83.6022C35.875 83.4136 36.336 83.1392 36.7503 82.779C37.1715 82.4148 37.5208 81.9608 37.7982 81.4169L39.8217 81.9705C39.4358 82.7829 38.9493 83.4712 38.3622 84.0356C37.7751 84.6 37.1177 85.037 36.3899 85.3465C35.6635 85.6506 34.8942 85.8231 34.082 85.864C33.2753 85.9064 32.4503 85.8123 31.6072 85.5816C30.182 85.1917 29.0098 84.4968 28.0906 83.497C27.1714 82.4971 26.5692 81.2682 26.284 79.8103C25.9988 78.3525 26.0973 76.7423 26.5794 74.9799C27.0616 73.2174 27.7965 71.7814 28.7842 70.6718C29.7718 69.5621 30.9157 68.811 32.2159 68.4183C33.5161 68.0256 34.8788 68.0242 36.3039 68.4142C37.1471 68.6448 37.9051 68.9837 38.5779 69.4309C39.2562 69.8796 39.8297 70.4224 40.2986 71.0594C40.769 71.6909 41.1132 72.3989 41.3312 73.1836C41.5506 73.9628 41.619 74.8029 41.5362 75.7041ZM45.7326 89.4812C44.6012 89.1716 43.6821 88.6308 42.9754 87.8586C42.2742 87.0879 41.8166 86.153 41.6029 85.0538C41.3945 83.956 41.4674 82.7599 41.8216 81.4652C42.1788 80.1597 42.7272 79.0849 43.4668 78.2406C44.2119 77.3979 45.0824 76.8234 46.0783 76.517C47.0797 76.2121 48.1461 76.2145 49.2775 76.524C50.4089 76.8336 51.3253 77.3737 52.0265 78.1443C52.7332 78.9165 53.19 79.8542 53.3969 80.9574C53.6092 82.062 53.5367 83.2671 53.1796 84.5726C52.8254 85.8672 52.2765 86.9332 51.5329 87.7705C50.7947 88.6093 49.925 89.1811 48.9236 89.486C47.9277 89.7923 46.8641 89.7907 45.7326 89.4812ZM46.2059 87.7514C47.0653 87.9865 47.8327 87.9597 48.5081 87.6709C49.1835 87.3821 49.7527 86.9151 50.2157 86.27C50.6787 85.6249 51.0247 84.8835 51.2539 84.0458C51.4831 83.2081 51.5634 82.391 51.4948 81.5946C51.4262 80.7982 51.1755 80.1011 50.7427 79.5033C50.3098 78.9054 49.6637 78.4889 48.8043 78.2538C47.9448 78.0187 47.1766 78.0482 46.4998 78.3425C45.8229 78.6367 45.2522 79.1091 44.7877 79.7597C44.3233 80.4102 43.9764 81.1544 43.7472 81.9921C43.5181 82.8298 43.4385 83.6441 43.5086 84.435C43.5787 85.226 43.8309 85.9177 44.2652 86.5101C44.6995 87.1025 45.3464 87.5163 46.2059 87.7514ZM53.7331 91.3894L57.162 78.8565L59.0223 79.3654L58.4866 81.3237L58.6497 81.3684C59.0939 80.7707 59.6576 80.3666 60.3408 80.1559C61.0255 79.9398 61.7759 79.9434 62.5918 80.1666C63.4186 80.3928 64.0554 80.7687 64.5021 81.2944C64.9558 81.8161 65.2461 82.4539 65.3731 83.2078L65.5037 83.2435C66.0017 82.684 66.6237 82.3016 67.3698 82.0965C68.1173 81.8859 68.9399 81.9033 69.8374 82.1489C70.958 82.4555 71.7786 83.0571 72.2992 83.9537C72.8213 84.845 72.8807 86.0276 72.4774 87.5018L70.1826 95.8897L68.2569 95.3629L70.5517 86.975C70.8047 86.0502 70.7326 85.3201 70.3354 84.7846C69.9381 84.2491 69.3968 83.8876 68.7114 83.7001C67.8302 83.459 67.0746 83.5388 66.4446 83.9394C65.8161 84.3346 65.391 84.9375 65.1693 85.748L62.937 93.9074L60.9787 93.3717L63.3271 84.7879C63.5221 84.0753 63.4479 83.4382 63.1046 82.8765C62.7627 82.3094 62.2274 81.9262 61.4985 81.7267C60.998 81.5898 60.4937 81.5951 59.9857 81.7426C59.483 81.8916 59.0337 82.1662 58.6377 82.5666C58.2486 82.9629 57.9699 83.4685 57.8018 84.0831L55.6588 91.9162L53.7331 91.3894ZM73.0141 96.6643L76.4429 84.1314L78.3685 84.6583L74.9397 97.1912L73.0141 96.6643ZM77.9935 82.3105C77.6181 82.2078 77.3294 81.9914 77.1274 81.6614C76.9308 81.3328 76.8816 80.989 76.9798 80.63C77.0781 80.271 77.2954 80.0001 77.6319 79.8173C77.9738 79.6361 78.3325 79.5968 78.7078 79.6995C79.0831 79.8022 79.3691 80.0178 79.5657 80.3464C79.7677 80.6765 79.8196 81.021 79.7214 81.38C79.6232 81.739 79.4031 82.0092 79.0612 82.1904C78.7247 82.3732 78.3688 82.4132 77.9935 82.3105ZM81.7656 90.955L79.7029 98.4943L77.7773 97.9675L81.2061 85.4346L83.0665 85.9436L82.5307 87.9018L82.6939 87.9465C83.1617 87.3904 83.7477 87.0011 84.4517 86.7786C85.1572 86.5506 85.9832 86.5661 86.9297 86.8251C87.7783 87.0572 88.4732 87.4345 89.0144 87.9567C89.5571 88.4735 89.9092 89.1312 90.0708 89.9296C90.2339 90.7226 90.1696 91.6522 89.8779 92.7184L87.6992 100.682L85.7735 100.155L87.9165 92.3221C88.1859 91.3375 88.1401 90.5006 87.7791 89.8113C87.4195 89.1166 86.7937 88.6472 85.9016 88.4031C85.2869 88.2349 84.7011 88.2179 84.144 88.352C83.5924 88.4876 83.108 88.7731 82.6907 89.2085C82.2733 89.6439 81.965 90.2261 81.7656 90.955ZM94.2302 107.801C93.3001 107.547 92.5332 107.208 91.9296 106.786C91.3245 106.369 90.8518 105.906 90.5114 105.398C90.1749 104.897 89.9357 104.393 89.7936 103.886L91.6223 103.229C91.7338 103.505 91.8827 103.826 92.0689 104.193C92.2536 104.565 92.5474 104.923 92.9502 105.267C93.357 105.618 93.9384 105.897 94.6945 106.104C95.7063 106.381 96.6083 106.364 97.4004 106.055C98.1925 105.745 98.7315 105.068 99.0172 104.024L99.7137 101.478L99.5505 101.434C99.3466 101.623 99.0679 101.851 98.7145 102.117C98.3681 102.379 97.9171 102.574 97.3615 102.703C96.8129 102.827 96.1306 102.778 95.3147 102.555C94.3029 102.278 93.46 101.79 92.7859 101.091C92.1172 100.394 91.674 99.5242 91.4562 98.4824C91.2438 97.4421 91.3162 96.2691 91.6734 94.9636C92.0246 93.6799 92.5562 92.6238 93.2681 91.7954C93.9815 90.9615 94.8122 90.3936 95.7601 90.0917C96.7095 89.7843 97.7119 89.7749 98.7672 90.0636C99.5831 90.2869 100.193 90.6 100.598 91.0029C101.009 91.4019 101.295 91.8077 101.457 92.2203C101.626 92.629 101.751 92.9615 101.833 93.2178L102.029 93.2714L102.574 91.2805L104.434 91.7894L100.907 104.681C100.612 105.758 100.128 106.567 99.454 107.108C98.7838 107.655 97.9949 107.974 97.0872 108.065C96.1834 108.163 95.2311 108.075 94.2302 107.801ZM96.049 100.897C96.8214 101.108 97.5226 101.11 98.1524 100.902C98.7822 100.694 99.3266 100.297 99.7856 99.7088C100.245 99.121 100.601 98.3648 100.854 97.4401C101.101 96.5371 101.183 95.703 101.1 94.9377C101.017 94.1725 100.762 93.5211 100.336 92.9836C99.9103 92.4461 99.3057 92.0702 98.5224 91.8559C97.7065 91.6327 96.97 91.6534 96.3129 91.918C95.6613 92.1841 95.1042 92.628 94.6417 93.2499C94.1847 93.8732 93.8401 94.6092 93.608 95.4578C93.3698 96.3281 93.2953 97.135 93.3842 97.8785C93.48 98.6181 93.7452 99.2519 94.1795 99.78C94.6208 100.304 95.2439 100.676 96.049 100.897Z" fill="white"/>
<path d="M83.1948 43.1126C82.7761 42.5506 82.2169 42.2491 81.517 42.2082C80.8172 42.1673 80.0983 42.3593 79.3602 42.7842C78.8206 43.0949 78.3986 43.454 78.0944 43.8616C77.7941 44.2669 77.6188 44.6875 77.5686 45.1232C77.5222 45.5567 77.611 45.9679 77.8349 46.3568C78.0222 46.6821 78.2607 46.9173 78.5502 47.0624C78.8414 47.2012 79.1546 47.2771 79.4897 47.2902C79.8225 47.2994 80.1524 47.2759 80.4794 47.2197C80.804 47.1596 81.0966 47.0942 81.357 47.0235L82.787 46.6441C83.1524 46.5447 83.5718 46.4565 84.0452 46.3794C84.5226 46.3001 85.0129 46.2846 85.5163 46.3329C86.0213 46.375 86.5039 46.5251 86.9642 46.7832C87.4245 47.0413 87.8191 47.456 88.1481 48.0274C88.5273 48.6861 88.6973 49.3807 88.6582 50.1112C88.6231 50.8394 88.3664 51.5498 87.8881 52.2425C87.4139 52.9329 86.7085 53.5477 85.772 54.0868C84.899 54.5894 84.062 54.8837 83.261 54.9698C82.4639 55.0535 81.7377 54.9485 81.0825 54.6548C80.4313 54.3587 79.89 53.891 79.4586 53.2518L80.9823 52.3746C81.287 52.812 81.6611 53.1039 82.1045 53.2501C82.5497 53.3901 83.0228 53.4136 83.524 53.3205C84.0269 53.2212 84.5203 53.0322 85.0045 52.7535C85.5679 52.4291 86.0213 52.0466 86.3646 51.6059C86.7057 51.1613 86.9123 50.6989 86.9846 50.2188C87.0546 49.7347 86.9617 49.2704 86.7058 48.826C86.4728 48.4212 86.1701 48.157 85.7977 48.0332C85.4253 47.9095 85.0089 47.8745 84.5485 47.9282C84.0881 47.9819 83.6094 48.0726 83.1123 48.2003L81.3656 48.6353C80.2556 48.9097 79.2767 48.9529 78.4287 48.7648C77.5808 48.5767 76.9204 48.072 76.4475 47.2506C76.0546 46.5681 75.8964 45.8666 75.9731 45.1462C76.0514 44.4196 76.3229 43.735 76.7877 43.0923C77.2541 42.4434 77.8762 41.895 78.654 41.4473C79.4397 40.995 80.2192 40.7338 80.9924 40.6637C81.7634 40.5897 82.4669 40.6919 83.1027 40.9704C83.7425 41.2466 84.2494 41.6866 84.6233 42.2902L83.1948 43.1126ZM95.6108 48.391C94.7854 48.8661 93.9482 49.0866 93.099 49.0524C92.2538 49.016 91.4533 48.7451 90.6975 48.2398C89.9456 47.7322 89.2979 47.0062 88.7542 46.0618C88.2059 45.1094 87.8999 44.1788 87.8362 43.2697C87.7765 42.3584 87.9431 41.5281 88.336 40.7789C88.7328 40.0274 89.3439 39.4141 90.1693 38.9389C90.9946 38.4637 91.8299 38.2444 92.6751 38.2809C93.5243 38.3151 94.3259 38.5879 95.08 39.0995C95.8382 39.6087 96.4913 40.3395 97.0396 41.2919C97.5833 42.2363 97.8839 43.1622 97.9413 44.0696C98.0027 44.9746 97.835 45.8029 97.4381 46.5544C97.0453 47.3036 96.4362 47.9158 95.6108 48.391ZM94.8843 47.1291C95.5113 46.7682 95.9346 46.3105 96.1544 45.7561C96.3741 45.2016 96.4304 44.6065 96.3233 43.9708C96.2161 43.3351 95.9867 42.7117 95.6349 42.1006C95.2831 41.4895 94.858 40.976 94.3598 40.5602C93.8615 40.1444 93.3163 39.8903 92.7243 39.7979C92.1322 39.7055 91.5227 39.8398 90.8957 40.2008C90.2688 40.5617 89.8466 41.0214 89.6291 41.5798C89.4117 42.1382 89.3577 42.7372 89.4671 43.3769C89.5765 44.0166 89.8071 44.642 90.1589 45.2531C90.5107 45.8642 90.9346 46.3757 91.4306 46.7875C91.9265 47.1994 92.4694 47.4495 93.0592 47.5379C93.649 47.6263 94.2574 47.4901 94.8843 47.1291ZM105.109 42.9228C104.284 43.398 103.446 43.6185 102.597 43.5843C101.752 43.5478 100.952 43.2769 100.196 42.7716C99.444 42.2641 98.7962 41.5381 98.2525 40.5936C97.7042 39.6413 97.3982 38.7106 97.3346 37.8016C97.2748 36.8902 97.4414 36.06 97.8343 35.3108C98.2311 34.5593 98.8422 33.9459 99.6676 33.4708C100.493 32.9956 101.328 32.7763 102.173 32.8127C103.023 32.8469 103.824 33.1198 104.578 33.6313C105.336 34.1406 105.99 34.8714 106.538 35.8237C107.082 36.7682 107.382 37.694 107.44 38.6014C107.501 39.5065 107.333 40.3348 106.936 41.0863C106.544 41.8355 105.934 42.4477 105.109 42.9228ZM104.383 41.661C105.01 41.3 105.433 40.8423 105.653 40.2879C105.872 39.7335 105.929 39.1384 105.822 38.5027C105.714 37.8669 105.485 37.2435 105.133 36.6324C104.781 36.0213 104.356 35.5079 103.858 35.0921C103.36 34.6762 102.815 34.4221 102.223 34.3298C101.631 34.2374 101.021 34.3717 100.394 34.7326C99.7671 35.0936 99.3449 35.5532 99.1275 36.1116C98.91 36.67 98.856 37.2691 98.9654 37.9088C99.0748 38.5485 99.3054 39.1739 99.6572 39.785C100.009 40.396 100.433 40.9075 100.929 41.3194C101.425 41.7312 101.968 41.9814 102.558 42.0698C103.147 42.1582 103.756 42.0219 104.383 41.661ZM109.022 33.0939L112.188 38.5938L110.784 39.4024L105.52 30.2599L106.877 29.4786L107.7 30.9071L107.819 30.8386C107.766 30.251 107.876 29.6906 108.151 29.1576C108.423 28.6206 108.904 28.1534 109.594 27.7559C110.213 27.3995 110.828 27.2147 111.439 27.2014C112.047 27.1841 112.627 27.3571 113.18 27.7205C113.73 28.08 114.229 28.6485 114.677 29.4263L118.021 35.2356L116.617 36.0443L113.327 30.3302C112.914 29.612 112.405 29.1599 111.801 28.9738C111.195 28.7838 110.567 28.8761 109.916 29.2508C109.468 29.5089 109.123 29.8369 108.882 30.2346C108.644 30.6301 108.532 31.0726 108.544 31.5621C108.557 32.0516 108.716 32.5622 109.022 33.0939Z" fill="white"/>
</g>
<defs>
<clipPath id="clip0_144_1404">
<rect width="135" height="139" fill="white"/>
</clipPath>
</defs>
</svg>
