<svg width="184" height="191" viewBox="0 0 184 191" fill="none" xmlns="http://www.w3.org/2000/svg">
<rect x="0.746094" y="0.345703" width="182.925" height="190.184" rx="14.2712" fill="white"/>
<path d="M56.8683 84.5934L33.4081 53.2688H25.0105V84.5934H16.7461V16.3457H25.0105V45.9375H28.6095L55.9352 16.3457H65.7991L38.2068 46.3374L66.7322 84.5934H56.8683Z" fill="black"/>
<path d="M71.0853 103.788C69.7524 103.788 68.5638 103.677 67.5197 103.455C66.4755 103.255 65.7535 103.055 65.3536 102.855L67.353 95.9236C69.2636 96.4124 70.952 96.5901 72.4183 96.4568C73.8846 96.3235 75.1842 95.6681 76.3172 94.4907C77.4724 93.3354 78.5277 91.4582 79.483 88.8589L80.9493 84.86L62.0212 33.4076H70.5522L84.6816 74.1963H85.2147L99.3442 33.4076H107.875L86.1478 92.058C85.1703 94.7017 83.9595 96.89 82.5155 98.6228C81.0714 100.378 79.3941 101.678 77.4836 102.522C75.5952 103.366 73.4624 103.788 71.0853 103.788Z" fill="black"/>
<path d="M139.679 73.9297L157.541 33.4076H165.005L142.878 84.5934H136.48L114.753 33.4076H122.084L139.679 73.9297ZM119.551 33.4076V84.5934H111.687V33.4076H119.551ZM159.807 84.5934V33.4076H167.671V84.5934H159.807Z" fill="black"/>
<path d="M56.8683 161.335L33.4081 130.01H25.0105V161.335H16.7461V93.087H25.0105V122.679H28.6095L55.9352 93.087H65.7991L38.2068 123.079L66.7322 161.335H56.8683Z" fill="black"/>
<path d="M71.0853 180.529C69.7524 180.529 68.5638 180.418 67.5197 180.196C66.4755 179.996 65.7535 179.796 65.3536 179.596L67.353 172.665C69.2636 173.154 70.952 173.331 72.4183 173.198C73.8846 173.065 75.1842 172.409 76.3172 171.232C77.4724 170.077 78.5277 168.2 79.483 165.6L80.9493 161.601L62.0212 110.149H70.5522L84.6816 150.938H85.2147L99.3442 110.149H107.875L86.1478 168.799C85.1703 171.443 83.9595 173.631 82.5155 175.364C81.0714 177.119 79.3941 178.419 77.4836 179.263C75.5952 180.107 73.4624 180.529 71.0853 180.529Z" fill="black"/>
<path d="M139.679 150.671L157.541 110.149H165.005L142.878 161.335H136.48L114.753 110.149H122.084L139.679 150.671ZM119.551 110.149V161.335H111.687V110.149H119.551ZM159.807 161.335V110.149H167.671V161.335H159.807Z" fill="black"/>
</svg>
