<?xml version="1.0" encoding="UTF-8"?>
<svg xmlns="http://www.w3.org/2000/svg" baseProfile="tiny" version="1.2" viewBox="0 0 113.39 113.39">
  <!-- Generator: Adobe Illustrator 28.7.4, SVG Export Plug-In . SVG Version: 1.2.0 Build 166)  -->
  <g>
    <g id="_レイヤー_1" data-name="レイヤー_1">
      <g id="_編集モード" data-name="編集モード">
        <path d="M40.65,32.37c-.27,1.66-1.2,3.14-2.59,4.09l3.23,4.66c5.38-3.72,6.72-11.1,2.99-16.47-.07-.1-.13-.19-.2-.29-.97-1.33-1.36-3-1.08-4.63.27-1.66,1.21-3.14,2.59-4.09l-3.27-4.64c-5.38,3.72-6.72,11.1-2.99,16.47.07.1.13.19.2.29.98,1.32,1.39,2.99,1.12,4.61Z" fill="#040000"/>
        <path d="M54.82,32.37c-.27,1.66-1.2,3.14-2.59,4.09l3.23,4.66c5.38-3.72,6.72-11.1,2.99-16.47-.07-.1-.13-.19-.2-.29-.99-1.33-1.4-3.01-1.12-4.64.27-1.66,1.21-3.14,2.59-4.09l-3.22-4.63c-5.37,3.72-6.71,11.1-2.99,16.48.06.09.12.18.19.26.99,1.33,1.39,3,1.12,4.63Z" fill="#040000"/>
        <path d="M69,32.37c-.27,1.66-1.2,3.14-2.59,4.09l3.23,4.66c5.38-3.72,6.72-11.1,2.99-16.47-.07-.1-.13-.19-.2-.29-.99-1.33-1.4-3.01-1.12-4.64.27-1.66,1.21-3.14,2.59-4.09l-3.23-4.63c-5.38,3.72-6.72,11.1-2.99,16.47.07.1.13.19.2.29.98,1.32,1.39,2.99,1.12,4.61Z" fill="#040000"/>
        <path d="M56.69,55.83c18.58,0,32.6-7,32.6-16.37,0-2.79-1.27-6.88-7.32-10.55l-2.97,4.85c1.71,1,4.58,3.16,4.58,5.7,0,5.05-11.52,10.7-26.93,10.7s-26.93-5.65-26.93-10.7c0-2.54,2.87-4.66,4.58-5.7l-2.94-4.85c-6,3.66-7.32,7.76-7.32,10.55.06,9.33,14.07,16.37,32.65,16.37Z" fill="#040000"/>
        <circle cx="29.27" cy="74.61" r="7.51" fill="#040000"/>
        <path d="M96.58,81.4c0-3.7-2.71-6.85-6.37-7.4l-39.21-5.54c-3.72-.56-7.27,1.73-8.3,5.34l-4,14h-16.2c-3.15-.13-5.8,2.31-5.93,5.46-.13,3.15,2.31,5.8,5.46,5.93.16,0,.32,0,.48,0h74.06v-8.56h0l.02-9.23Z" fill="#040000"/>
      </g>
    </g>
  </g>
</svg>