<svg width="360" height="356" viewBox="0 0 360 356" fill="none" xmlns="http://www.w3.org/2000/svg">
<path d="M2.5 194.805L0 212.805L55 214.805L77 183.805L27 353.305H97L121 263.805V353.305H182.5V176.305C224.494 169.17 241.763 161.962 271 148.305L241.5 98.3051L121 148.305L97 106.805L118 90.8051L153 76.8051C168.162 51.4615 175.931 37.2153 150 9.80512C132.224 -0.0343924 122.753 2.6685 106 9.80512C80.9908 31.959 82.9151 47.9344 101.5 79.8051L86.5 85.3051L59.5 102.305C37.0307 123.885 27.1625 138.405 13.5 167.805L2.5 194.805Z" fill="#2451B6"/>
<path d="M117.5 91C116.7 91.8 103 101.833 97 106.5L120.5 148.5L241.5 99L271 148.305L182 176.5C182.167 234 182.9 349.705 182.5 353.305C182.1 356.905 223.5 354.805 243.5 353.305L246 265.305L267.5 353.305H331L288 181.805L312 221.305L360 202.305L347 165.305C326.267 112.723 306.553 93.6718 262 71.8052C281.842 45.4611 280.532 31.0286 259.5 5.80516C242.024 -2.59404 233 -1.24699 217.5 5.80516C199.927 25.5419 192.141 37.1537 214 67.3052C195.762 65.8406 160 74.5 153.5 76.5C147 78.5 118.5 90 117.5 91Z" fill="#4B9D5F"/>
</svg>
